<svg xmlns="http://www.w3.org/2000/svg" width="128" height="128" viewBox="0 0 128 128" role="img" aria-label="MyTabDesk">
  <defs>
    <linearGradient id="bg" x1="20" y1="12" x2="112" y2="118" gradientUnits="userSpaceOnUse">
      <stop stop-color="#6366f1"/>
      <stop offset="0.48" stop-color="#2563eb"/>
      <stop offset="1" stop-color="#06b6d4"/>
    </linearGradient>
    <radialGradient id="glow" cx="0" cy="0" r="1" gradientTransform="matrix(52 0 0 52 31 22)" gradientUnits="userSpaceOnUse">
      <stop stop-color="#ffffff" stop-opacity="0.68"/>
      <stop offset="1" stop-color="#ffffff" stop-opacity="0"/>
    </radialGradient>
    <linearGradient id="desk" x1="34" y1="29" x2="96" y2="101" gradientUnits="userSpaceOnUse">
      <stop stop-color="#ffffff"/>
      <stop offset="1" stop-color="#dbeafe"/>
    </linearGradient>
    <filter id="shadow" x="15" y="18" width="98" height="98" color-interpolation-filters="sRGB" filterUnits="userSpaceOnUse">
      <feDropShadow dx="0" dy="10" stdDeviation="8" flood-color="#172554" flood-opacity="0.3"/>
    </filter>
  </defs>
  <rect x="8" y="8" width="112" height="112" rx="32" fill="url(#bg)"/>
  <rect x="8" y="8" width="112" height="112" rx="32" fill="url(#glow)"/>
  <path d="M31 39c0-6.08 4.92-11 11-11h48c6.08 0 11 4.92 11 11v48c0 6.08-4.92 11-11 11H42c-6.08 0-11-4.92-11-11V39Z" fill="url(#desk)" filter="url(#shadow)"/>
  <path d="M41 39.5c0-2.49 2.01-4.5 4.5-4.5h20c2.49 0 4.5 2.01 4.5 4.5V48H41v-8.5Zm35 0c0-2.49 2.01-4.5 4.5-4.5h9c2.49 0 4.5 2.01 4.5 4.5V48H76v-8.5Z" fill="#bfdbfe"/>
  <path d="M42 58h47v7.5H42V58Zm0 16.5h31V82H42v-7.5Z" fill="#2563eb"/>
  <path d="M79 73h13c2.76 0 5 2.24 5 5v13H84c-2.76 0-5-2.24-5-5V73Z" fill="#10b981"/>
  <path d="M92 75.5 96.5 71l4.5 4.5" fill="none" stroke="#a7f3d0" stroke-width="4" stroke-linecap="round" stroke-linejoin="round"/>
  <path d="M25 37c3.18-7.92 9.18-14.37 16.77-18.1" stroke="#a5f3fc" stroke-width="5" stroke-linecap="round" opacity="0.68"/>
  <path d="M87 107c6.05-2.11 11.36-5.9 15.31-10.88" stroke="#c4b5fd" stroke-width="5" stroke-linecap="round" opacity="0.62"/>
</svg>
